<?xml version="1.0" encoding="utf-8"?>
<svg version="1.1" xmlns:xlink="http://www.w3.org/1999/xlink" width="18px" height="18px" xmlns="http://www.w3.org/2000/svg">
  <g transform="matrix(1 0 0 1 -114 -17 )">
    <path d="M 6.08994140625 2.08271484375  C 7.01689453125 1.691015625  8.0033203125 1.49208984375  9.0205078125 1.49208984375  C 10.0376953125 1.49208984375  11.02412109375 1.691015625  11.95107421875 2.08271484375  C 12.847265625 2.462109375  13.65322265625 3.00556640625  14.3443359375 3.6966796875  C 15.03544921875 4.38779296875  15.57890625 5.19375  15.95830078125 6.08994140625  C 16.35 7.01689453125  16.54892578125 8.0033203125  16.54892578125 9.0205078125  C 16.54892578125 10.0376953125  16.35 11.02412109375  15.95830078125 11.95107421875  C 15.57890625 12.847265625  15.03544921875 13.65322265625  14.3443359375 14.3443359375  C 13.65322265625 15.03544921875  12.847265625 15.57890625  11.95107421875 15.95830078125  C 11.02412109375 16.35  10.0376953125 16.54892578125  9.0205078125 16.54892578125  C 8.0033203125 16.54892578125  7.01689453125 16.35  6.08994140625 15.95830078125  C 5.19375 15.57890625  4.38779296875 15.03544921875  3.6966796875 14.3443359375  C 3.00556640625 13.65322265625  2.462109375 12.847265625  2.08271484375 11.95107421875  C 1.691015625 11.02412109375  1.49208984375 10.0376953125  1.49208984375 9.0205078125  C 1.49208984375 8.0033203125  1.691015625 7.01689453125  2.08271484375 6.08994140625  C 2.462109375 5.19375  3.00556640625 4.38779296875  3.6966796875 3.6966796875  C 4.38779296875 3.00556640625  5.19375 2.462109375  6.08994140625 2.08271484375  Z M 17.53125 9.0205078125  C 17.53125 4.3201171875  13.7208984375 0.509765625  9.0205078125 0.509765625000001  C 4.3201171875 0.509765625  0.509765625 4.3201171875  0.509765625 9.0205078125  C 0.509765625 13.7208984375  4.3201171875 17.53125  9.0205078125 17.53125  C 13.7208984375 17.53125  17.53125 13.7208984375  17.53125 9.0205078125  Z " fill-rule="nonzero" fill="#ffffff" stroke="none" transform="matrix(1 0 0 1 114 17 )" />
  </g>
</svg>