<?xml version="1.0" encoding="utf-8"?>
<svg version="1.1" xmlns:xlink="http://www.w3.org/1999/xlink" width="8px" height="8px" xmlns="http://www.w3.org/2000/svg">
  <g transform="matrix(1 0 0 1 -119 -22 )">
    <path d="M 4.49 7.04289772727273  C 4.4025 7.20397727272727  4.2209375 7.30738636363636  4.021875 7.30738636363636  C 3.8228125 7.30738636363636  3.64125 7.20596590909091  3.55375 7.04488636363636  L 0.2965625 1.12073863636364  C 0.1675 0.886079545454546  0.272499999999999 0.599715909090909  0.530624999999999 0.482386363636363  C 0.78875 0.365056818181818  1.10375 0.460511363636362  1.2328125 0.695170454545454  L 4.021875 5.76619318181818  L 6.8109375 0.695170454545453  C 6.94 0.460511363636362  7.255 0.365056818181816  7.513125 0.482386363636362  C 7.77125 0.599715909090908  7.87625 0.886079545454544  7.7471875 1.12073863636364  L 4.49 7.04289772727273  Z " fill-rule="nonzero" fill="#ffffff" stroke="none" transform="matrix(1 0 0 1 119 22 )" />
  </g>
</svg>