<?xml version="1.0" encoding="utf-8"?>
<svg version="1.1" xmlns:xlink="http://www.w3.org/1999/xlink" width="23px" height="23px" xmlns="http://www.w3.org/2000/svg">
  <g transform="matrix(1 0 0 1 -752 -1988 )">
    <path d="M 15.9763656787109 22.0962695800781  C 14.5602400013343 22.6955998351466  13.0377255016249 23.00297109983  11.5 22.9999760341797  C 9.96227449837512 23.00297109983  8.43975999866566 22.6955998351466  7.02363432128906 22.0962695800781  C 5.65716544328353 21.5190646877616  4.41575875882492 20.6820488563962  3.36831902636719 19.6316809736328  C 2.31789815629081 18.5842351850831  1.48080461556789 17.3428339279573  0.903490829101563 15.9763656787109  C 0.304242750013789 14.5602229160673  -0.00304689436559277 13.0377090603544  2.39658203125E-05 11.5  C -0.0029710998299617 9.96227449837512  0.304400164853416 8.43975999866566  0.903730419921875 7.02363432128906  C 1.48104420638821 5.65716607204271  2.31813774711112 4.41576481491687  3.3685586171875 3.36831902636719  C 4.41600440573718 2.3178981562908  5.65740566286302 1.48080461556789  7.02387391210937 0.903490829101563  C 8.43994240984161 0.304274353199872  9.96237158517019 -0.00301464728718933  11.5 2.39658203125E-05  C 13.0377255016249 -0.0029710998299617  14.5602400013343 0.304400164853416  15.9763656787109 0.903730419921875  C 17.3428339279573 1.48104420638821  18.5842351850831 2.31813774711112  19.6316809736328 3.3685586171875  C 20.6820488563962 4.41599834964523  21.5190646877616 5.65740503410384  22.0962695800781 7.02387391210937  C 22.6955682320293 8.43992532540814  23.002938852649 9.96235514469608  22.9999760341797 11.5  C 23.00297109983 13.0377255016249  22.6955998351466 14.5602400013343  22.0962695800781 15.9763656787109  C 21.5190646877616 17.3428345567165  20.6820488563962 18.5842412411751  19.6316809736328 19.6316809736328  C 18.5842412411751 20.6820488563962  17.3428345567165 21.5190646877616  15.9763656787109 22.0962695800781  Z M 6.70834331347656 11.9791656708984  L 11.0208343291016 11.9791656708984  L 11.0208343291016 16.2916566865234  L 11.9791656708984 16.2916566865234  L 11.9791656708984 11.9791656708984  L 16.2916566865234 11.9791656708984  L 16.2916566865234 11.0208343291016  L 11.9791656708984 11.0208343291016  L 11.9791656708984 6.70834331347656  L 11.0208343291016 6.70834331347656  L 11.0208343291016 11.0208343291016  L 6.70834331347656 11.0208343291016  L 6.70834331347656 11.9791656708984  Z " fill-rule="nonzero" fill="#2170d9" stroke="none" transform="matrix(1 0 0 1 752 1988 )" />
  </g>
</svg>