<?xml version="1.0" encoding="utf-8"?>
<svg version="1.1" xmlns:xlink="http://www.w3.org/1999/xlink" width="250px" height="50px" xmlns="http://www.w3.org/2000/svg">
  <g transform="matrix(1 0 0 1 -90 -404 )">
    <path d="M 320.30425724725 404.5  C 320.30425724725 404.5  323.751478044743 404.844722079749  323.751478044743 404.844722079749  C 323.751478044743 404.844722079749  339.462227911573 429  339.462227911573 429  C 339.462227911573 429  323.751478044743 453.155277920251  323.751478044743 453.155277920251  C 323.751478044743 453.155277920251  320.30425724725 453.5  320.30425724725 453.5  C 320.30425724725 453.5  90.5 453.5  90.5 453.5  C 90.5 453.5  90.5 404.5  90.5 404.5  C 90.5 404.5  320.30425724725 404.5  320.30425724725 404.5  Z " fill-rule="nonzero" fill="#f2f2f2" stroke="none" />
    <path d="M 320.30425724725 404.5  C 320.30425724725 404.5  323.751478044743 404.844722079749  323.751478044743 404.844722079749  C 323.751478044743 404.844722079749  339.462227911573 429  339.462227911573 429  C 339.462227911573 429  323.751478044743 453.155277920251  323.751478044743 453.155277920251  C 323.751478044743 453.155277920251  320.30425724725 453.5  320.30425724725 453.5  C 320.30425724725 453.5  90.5 453.5  90.5 453.5  C 90.5 453.5  90.5 404.5  90.5 404.5  C 90.5 404.5  320.30425724725 404.5  320.30425724725 404.5  Z " stroke-width="1" stroke="#e4e4e4" fill="none" />
  </g>
</svg>