<?xml version="1.0" encoding="utf-8"?>
<svg version="1.1" xmlns:xlink="http://www.w3.org/1999/xlink" width="48px" height="48px" xmlns="http://www.w3.org/2000/svg">
  <g transform="matrix(1 0 0 1 -321 -211 )">
    <path d="M 345 212  C 357.88 212  368 222.12  368 235  C 368 247.88  357.88 258  345 258  C 332.12 258  322 247.88  322 235  C 322 222.12  332.12 212  345 212  Z " fill-rule="nonzero" fill="#999999" stroke="none" />
    <path d="M 345 212  C 357.88 212  368 222.12  368 235  C 368 247.88  357.88 258  345 258  C 332.12 258  322 247.88  322 235  C 322 222.12  332.12 212  345 212  Z " stroke-width="2" stroke="#999999" fill="none" />
  </g>
</svg>