<?xml version="1.0" encoding="utf-8"?>
<svg version="1.1" xmlns:xlink="http://www.w3.org/1999/xlink" width="48px" height="48px" xmlns="http://www.w3.org/2000/svg">
  <g transform="matrix(1 0 0 1 -747 -211 )">
    <path d="M 771 212  C 783.88 212  794 222.12  794 235  C 794 247.88  783.88 258  771 258  C 758.12 258  748 247.88  748 235  C 748 222.12  758.12 212  771 212  Z " fill-rule="nonzero" fill="#ffffff" stroke="none" />
    <path d="M 771 212  C 783.88 212  794 222.12  794 235  C 794 247.88  783.88 258  771 258  C 758.12 258  748 247.88  748 235  C 748 222.12  758.12 212  771 212  Z " stroke-width="2" stroke="#e4e4e4" fill="none" />
  </g>
</svg>