<?xml version="1.0" encoding="utf-8"?>
<svg version="1.1" xmlns:xlink="http://www.w3.org/1999/xlink" width="10px" height="11px" xmlns="http://www.w3.org/2000/svg">
  <g transform="matrix(1 0 0 1 -113 -43 )">
    <path d="M 5.6125 9.683984375  C 5.503125 9.90546875  5.276171875 10.04765625  5.02734375 10.04765625  C 4.778515625 10.04765625  4.5515625 9.908203125  4.4421875 9.68671875  L 0.370703125 1.541015625  C 0.209375 1.218359375  0.340624999999999 0.824609375  0.663281249999999 0.663281249999999  C 0.9859375 0.501953125  1.3796875 0.633203124999998  1.541015625 0.955859374999999  L 5.02734375 7.928515625  L 8.513671875 0.955859374999998  C 8.675 0.633203124999998  9.06875 0.501953124999996  9.39140625 0.663281249999997  C 9.7140625 0.824609374999998  9.8453125 1.218359375  9.683984375 1.541015625  L 5.6125 9.683984375  Z " fill-rule="nonzero" fill="#ffffff" stroke="none" transform="matrix(1 0 0 1 113 43 )" />
  </g>
</svg>