<?xml version="1.0" encoding="utf-8"?>
<svg version="1.1" xmlns:xlink="http://www.w3.org/1999/xlink" width="24px" height="24px" xmlns="http://www.w3.org/2000/svg">
  <g transform="matrix(1 0 0 1 -106 -36 )">
    <path d="M 8.119921875 2.776953125  C 9.355859375 2.2546875  10.67109375 1.989453125  12.02734375 1.989453125  C 13.38359375 1.989453125  14.698828125 2.2546875  15.934765625 2.776953125  C 17.1296875 3.2828125  18.204296875 4.007421875  19.12578125 4.92890625  C 20.047265625 5.850390625  20.771875 6.925  21.277734375 8.119921875  C 21.8 9.355859375  22.065234375 10.67109375  22.065234375 12.02734375  C 22.065234375 13.38359375  21.8 14.698828125  21.277734375 15.934765625  C 20.771875 17.1296875  20.047265625 18.204296875  19.12578125 19.12578125  C 18.204296875 20.047265625  17.1296875 20.771875  15.934765625 21.277734375  C 14.698828125 21.8  13.38359375 22.065234375  12.02734375 22.065234375  C 10.67109375 22.065234375  9.355859375 21.8  8.119921875 21.277734375  C 6.925 20.771875  5.850390625 20.047265625  4.92890625 19.12578125  C 4.007421875 18.204296875  3.2828125 17.1296875  2.776953125 15.934765625  C 2.2546875 14.698828125  1.989453125 13.38359375  1.989453125 12.02734375  C 1.989453125 10.67109375  2.2546875 9.355859375  2.776953125 8.119921875  C 3.2828125 6.925  4.007421875 5.850390625  4.92890625 4.92890625  C 5.850390625 4.007421875  6.925 3.2828125  8.119921875 2.776953125  Z M 23.375 12.02734375  C 23.375 5.76015625  18.29453125 0.6796875  12.02734375 0.679687500000001  C 5.76015625 0.6796875  0.6796875 5.76015625  0.6796875 12.02734375  C 0.6796875 18.29453125  5.76015625 23.375  12.02734375 23.375  C 18.29453125 23.375  23.375 18.29453125  23.375 12.02734375  Z " fill-rule="nonzero" fill="#ffffff" stroke="none" transform="matrix(1 0 0 1 106 36 )" />
  </g>
</svg>